<svg width="68" height="43" viewBox="0 0 68 43" fill="none" xmlns="http://www.w3.org/2000/svg">
<path fill-rule="evenodd" clip-rule="evenodd" d="M39.1579 3.39207C41.3795 5.55752 42.6304 8.49242 42.6368 11.5545V11.5571C42.6341 25.8667 18.9233 28.4402 18.9233 28.4402V11.5545C18.9298 8.49151 20.1814 5.55582 22.4041 3.39022C24.6269 1.22461 27.6397 0.00556265 30.7828 0C33.9249 0.00695286 36.9363 1.22661 39.1579 3.39207ZM12.3995 12.8306H12.4022C14.6645 12.8306 16.4985 14.6177 16.4985 16.8223V16.8249C16.4985 19.0295 14.6645 20.8167 12.4022 20.8167H12.3995C10.1372 20.8167 8.30322 19.0295 8.30322 16.8249V16.8223C8.30322 14.6177 10.1372 12.8306 12.3995 12.8306ZM0 33.9823C0.00569904 36.1129 0.876556 38.1547 2.42228 39.6615C3.96799 41.1683 6.0629 42.0177 8.24923 42.0239C10.4351 42.0177 12.5296 41.1687 14.0752 39.6625C15.6209 38.1562 16.492 36.1151 16.4985 33.9849V22.2356C16.4985 22.2356 0 24.0276 0 33.9823ZM8.24923 36.0874C7.82198 36.0874 7.40433 35.964 7.04909 35.7327C6.69385 35.5013 6.41697 35.1726 6.25347 34.7879C6.08997 34.4032 6.04719 33.9799 6.13054 33.5716C6.2139 33.1632 6.41963 32.7881 6.72174 32.4937C7.02385 32.1993 7.40876 31.9988 7.8278 31.9176C8.24683 31.8364 8.68117 31.8781 9.0759 32.0374C9.47062 32.1967 9.808 32.4665 10.0454 32.8127C10.2827 33.1589 10.4094 33.5659 10.4094 33.9823C10.4105 34.2594 10.3554 34.534 10.2473 34.7903C10.1392 35.0466 9.98028 35.2796 9.77958 35.476C9.57889 35.6723 9.34039 35.828 9.07777 35.9343C8.81516 36.0406 8.53359 36.0953 8.24923 36.0953V36.0874ZM23.4014 34.7812H25.0889V34.0723H23.4014V32.9707H25.2998V32.2588H22.5225V36.5244H23.4014V34.7812ZM29.0908 35.5928C29.2393 35.2764 29.3135 34.9082 29.3135 34.4883V34.2979C29.3135 33.8799 29.2373 33.5117 29.085 33.1934C28.9346 32.873 28.7207 32.6279 28.4434 32.458C28.168 32.2861 27.8525 32.2002 27.4971 32.2002C27.1416 32.2002 26.8252 32.2861 26.5479 32.458C26.2725 32.6279 26.0586 32.873 25.9062 33.1934C25.7559 33.5117 25.6807 33.8809 25.6807 34.3008V34.5117C25.6826 34.9219 25.7598 35.2852 25.9121 35.6016C26.0645 35.916 26.2793 36.1582 26.5566 36.3281C26.834 36.498 27.1494 36.583 27.5029 36.583C27.8604 36.583 28.1768 36.4971 28.4521 36.3252C28.7295 36.1533 28.9424 35.9092 29.0908 35.5928ZM28.1826 33.2754C28.3428 33.5078 28.4229 33.8477 28.4229 34.2949V34.5029C28.4209 34.9463 28.3408 35.2842 28.1826 35.5166C28.0244 35.7471 27.7979 35.8623 27.5029 35.8623C27.2021 35.8623 26.9717 35.7422 26.8115 35.502C26.6514 35.2617 26.5713 34.9238 26.5713 34.4883V34.2803C26.5732 33.8369 26.6543 33.501 26.8145 33.2725C26.9746 33.042 27.2021 32.9268 27.4971 32.9268C27.7939 32.9268 28.0225 33.043 28.1826 33.2754ZM31.9883 35.0244C32.1055 35.1123 32.1641 35.2393 32.1641 35.4053C32.1641 35.5576 32.1055 35.6768 31.9883 35.7627C31.8711 35.8467 31.708 35.8887 31.499 35.8887C30.9365 35.8887 30.6553 35.6533 30.6553 35.1826H29.7734C29.7734 35.458 29.8438 35.7002 29.9844 35.9092C30.127 36.1182 30.333 36.2832 30.6025 36.4043C30.8721 36.5234 31.1709 36.583 31.499 36.583C31.9717 36.583 32.3477 36.4785 32.627 36.2695C32.9062 36.0586 33.0459 35.7686 33.0459 35.3994C33.0459 35.0674 32.9316 34.79 32.7031 34.5674C32.4746 34.3447 32.1104 34.1582 31.6104 34.0078C31.3389 33.9258 31.1328 33.8379 30.9922 33.7441C30.8535 33.6504 30.7842 33.5342 30.7842 33.3955C30.7842 33.2471 30.8438 33.1279 30.9629 33.0381C31.082 32.9463 31.249 32.9004 31.4639 32.9004C31.6865 32.9004 31.8594 32.9551 31.9824 33.0645C32.1055 33.1719 32.167 33.3232 32.167 33.5186H33.0459C33.0459 33.2627 32.9795 33.0342 32.8467 32.833C32.7158 32.6318 32.5312 32.4766 32.293 32.3672C32.0547 32.2559 31.7832 32.2002 31.4785 32.2002C31.1758 32.2002 30.9023 32.251 30.6582 32.3525C30.416 32.4541 30.2295 32.5957 30.0986 32.7773C29.9697 32.957 29.9053 33.1621 29.9053 33.3926C29.9053 33.8359 30.1475 34.1885 30.6318 34.4502C30.8096 34.5459 31.0508 34.6436 31.3555 34.7432C31.6602 34.8408 31.8711 34.9346 31.9883 35.0244ZM35.5479 32.9707H36.8545V32.2588H33.3799V32.9707H34.6689V36.5244H35.5479V32.9707ZM38.2373 34.6758H39.9248V33.9873H38.2373V32.9707H40.2119V32.2588H37.3584V36.5244H40.2178V35.8184H38.2373V34.6758ZM41.6123 34.9629H42.3125L43.1123 36.5244H44.0557V36.4834L43.1328 34.7402C43.3887 34.625 43.5791 34.4707 43.7041 34.2773C43.8311 34.082 43.8945 33.8389 43.8945 33.5479C43.8945 33.1377 43.7578 32.8203 43.4844 32.5957C43.2109 32.3711 42.8223 32.2588 42.3184 32.2588H40.7334V36.5244H41.6123V34.9629ZM42.3213 34.251H41.6123V32.9707H42.3184C42.5547 32.9707 42.7295 33.0283 42.8428 33.1436C42.958 33.2588 43.0156 33.417 43.0156 33.6182C43.0156 33.8154 42.9551 33.9707 42.834 34.084C42.7129 34.1953 42.542 34.251 42.3213 34.251ZM46.9385 36.5244V35.0215H47.709C48.2148 35.0215 48.6104 34.9014 48.8955 34.6611C49.1826 34.4189 49.3262 34.0889 49.3262 33.6709C49.3262 33.3955 49.2607 33.1504 49.1299 32.9355C48.999 32.7188 48.8115 32.5518 48.5674 32.4346C48.3252 32.3174 48.0439 32.2588 47.7236 32.2588H46.0596V36.5244H46.9385ZM47.7236 34.3096H46.9385V32.9707H47.7441C47.9609 32.9746 48.1309 33.041 48.2539 33.1699C48.377 33.2988 48.4385 33.4678 48.4385 33.6768C48.4385 33.8799 48.377 34.0361 48.2539 34.1455C48.1328 34.2549 47.9561 34.3096 47.7236 34.3096ZM50.8115 34.6758H52.499V33.9873H50.8115V32.9707H52.7861V32.2588H49.9326V36.5244H52.792V35.8184H50.8115V34.6758ZM55.2705 32.9707H56.5771V32.2588H53.1025V32.9707H54.3916V36.5244H55.2705V32.9707ZM57.96 34.6758H59.6475V33.9873H57.96V32.9707H59.9346V32.2588H57.0811V36.5244H59.9404V35.8184H57.96V34.6758ZM61.335 34.9629H62.0352L62.835 36.5244H63.7783V36.4834L62.8555 34.7402C63.1113 34.625 63.3018 34.4707 63.4268 34.2773C63.5537 34.082 63.6172 33.8389 63.6172 33.5479C63.6172 33.1377 63.4805 32.8203 63.207 32.5957C62.9336 32.3711 62.5449 32.2588 62.041 32.2588H60.4561V36.5244H61.335V34.9629ZM62.0439 34.251H61.335V32.9707H62.041C62.2773 32.9707 62.4521 33.0283 62.5654 33.1436C62.6807 33.2588 62.7383 33.417 62.7383 33.6182C62.7383 33.8154 62.6777 33.9707 62.5566 34.084C62.4355 34.1953 62.2646 34.251 62.0439 34.251ZM66.3242 35.0244C66.4414 35.1123 66.5 35.2393 66.5 35.4053C66.5 35.5576 66.4414 35.6768 66.3242 35.7627C66.207 35.8467 66.0439 35.8887 65.835 35.8887C65.2725 35.8887 64.9912 35.6533 64.9912 35.1826H64.1094C64.1094 35.458 64.1797 35.7002 64.3203 35.9092C64.4629 36.1182 64.6689 36.2832 64.9385 36.4043C65.208 36.5234 65.5068 36.583 65.835 36.583C66.3076 36.583 66.6836 36.4785 66.9629 36.2695C67.2422 36.0586 67.3818 35.7686 67.3818 35.3994C67.3818 35.0674 67.2676 34.79 67.0391 34.5674C66.8105 34.3447 66.4463 34.1582 65.9463 34.0078C65.6748 33.9258 65.4688 33.8379 65.3281 33.7441C65.1895 33.6504 65.1201 33.5342 65.1201 33.3955C65.1201 33.2471 65.1797 33.1279 65.2988 33.0381C65.418 32.9463 65.585 32.9004 65.7998 32.9004C66.0225 32.9004 66.1953 32.9551 66.3184 33.0645C66.4414 33.1719 66.5029 33.3232 66.5029 33.5186H67.3818C67.3818 33.2627 67.3154 33.0342 67.1826 32.833C67.0518 32.6318 66.8672 32.4766 66.6289 32.3672C66.3906 32.2559 66.1191 32.2002 65.8145 32.2002C65.5117 32.2002 65.2383 32.251 64.9941 32.3525C64.752 32.4541 64.5654 32.5957 64.4346 32.7773C64.3057 32.957 64.2412 33.1621 64.2412 33.3926C64.2412 33.8359 64.4834 34.1885 64.9678 34.4502C65.1455 34.5459 65.3867 34.6436 65.6914 34.7432C65.9961 34.8408 66.207 34.9346 66.3242 35.0244Z" fill="#2196F3"/>
</svg>
